<svg width="20" height="20" viewBox="0 0 20 20" fill="none" xmlns="http://www.w3.org/2000/svg">
<g clip-path="url(#clip0_1011_29784)">
<path d="M10 20C15.5228 20 20 15.5228 20 10C20 4.47715 15.5228 0 10 0C4.47715 0 0 4.47715 0 10C0 15.5228 4.47715 20 10 20Z" fill="#F0F0F0"/>
<path d="M-0.000488281 10.0002C-0.000488281 14.2999 2.71326 17.9653 6.52127 19.3782V0.622223C2.71326 2.03511 -0.000488281 5.70058 -0.000488281 10.0002Z" fill="#6DA544"/>
<path d="M19.9998 10.0002C19.9998 5.70058 17.286 2.03511 13.478 0.622223V19.3783C17.286 17.9653 19.9998 14.2999 19.9998 10.0002Z" fill="#6DA544"/>
</g>
<defs>
<clipPath id="clip0_1011_29784">
<rect width="20" height="20" fill="white"/>
</clipPath>
</defs>
</svg>
