<svg width="117" height="32" viewBox="0 0 117 32" fill="none" xmlns="http://www.w3.org/2000/svg">
<g clip-path="url(#clip0_508_9330)">
<path fill-rule="evenodd" clip-rule="evenodd" d="M10.9844 31.6345V22.5646C10.9844 22.3631 11.1474 22.199 11.347 22.199H20.3223C20.5215 22.199 20.6851 22.3633 20.6851 22.5646V31.6345C20.6851 31.8365 20.5215 32 20.3223 32H11.347C11.1474 32 10.9844 31.8365 10.9844 31.6345ZM0.145819 9.30628C-0.0403451 9.4944 -0.0720449 9.82053 0.362914 9.82053H9.33739C9.53719 9.82053 9.7003 9.65514 9.7003 9.4542L9.69627 0.330212C9.69627 0.0590161 9.39464 -0.0394072 9.23902 0.11803L0.145819 9.30628ZM31.5054 22.7457C31.7401 22.5078 31.6905 22.2189 31.3069 22.2189H22.3313C22.1324 22.2189 21.9694 22.3843 21.9687 22.5844L21.9541 31.6046C21.9532 32.0188 22.3382 32.0156 22.5565 31.7952L31.5054 22.7457ZM3.96656e-07 20.5774L0 11.5088C-8.89904e-09 11.3054 0.162725 11.141 0.362145 11.141H9.33739C9.53719 11.141 9.69992 11.3052 9.69992 11.5088V20.5774C9.69992 20.7789 9.537 20.9436 9.33739 20.9436H0.362145C0.162726 20.9436 4.05469e-07 20.7789 3.96656e-07 20.5774ZM21.9687 20.5663V11.4964C21.9687 11.2951 22.1324 11.1303 22.3313 11.1303H31.3069C31.5066 11.1303 31.6692 11.2951 31.6692 11.4964V20.5663C31.6692 20.7671 31.5066 20.9326 31.3069 20.9326H22.3313C22.1324 20.9327 21.9687 20.7675 21.9687 20.5663ZM21.9687 9.47808V0.409609C21.9687 0.206746 22.1324 0.0432917 22.3313 0.0432917L31.3069 0.0432914C31.5066 0.0432914 31.6692 0.206551 31.6692 0.409609V9.47808C31.6692 9.67882 31.5066 9.84441 31.3069 9.84441H22.3313C22.1324 9.84441 21.9687 9.67882 21.9687 9.47808ZM10.9844 9.43479V0.366318C10.9844 0.164037 11.1474 4.00791e-07 11.347 3.9207e-07L20.3223 0C20.5215 -8.7033e-09 20.6851 0.164037 20.6851 0.366318V9.43479C20.6851 9.63747 20.5215 9.8019 20.3223 9.8019H11.347C11.1474 9.8017 10.9844 9.63727 10.9844 9.43479Z" fill="#0166F4"/>
<path d="M36.4116 20.9231V8.14752H40.9773C41.8661 8.14752 42.6454 8.29352 43.315 8.58553C43.9846 8.86537 44.508 9.28515 44.8856 9.84483C45.263 10.4045 45.4516 11.092 45.4516 11.9072C45.4516 12.7224 45.2568 13.4159 44.8673 13.9878C44.4899 14.5475 43.9663 14.9733 43.2967 15.2653C42.6271 15.5452 41.854 15.6851 40.9773 15.6851H38.4935V20.9231H36.4116ZM38.4935 13.9148H40.9226C41.8112 13.9148 42.4323 13.7383 42.7852 13.3855C43.1505 13.0205 43.3331 12.5277 43.3331 11.9072C43.3331 11.2988 43.1505 10.8121 42.7852 10.4471C42.4323 10.0821 41.8112 9.89959 40.9226 9.89959H38.4935V13.9148ZM46.5986 20.9231V8.14752H48.6622V20.9231H46.5986ZM53.716 21.1422C52.9612 21.1422 52.3097 20.9839 51.7619 20.6676C51.2261 20.3513 50.8123 19.901 50.5201 19.3169C50.2278 18.7209 50.0818 18.0213 50.0818 17.2182V11.8707H52.1454V16.9262C52.1454 17.6805 52.3221 18.2827 52.675 18.733C53.0402 19.171 53.576 19.3901 54.2822 19.3901C55.0006 19.3901 55.5606 19.1589 55.9624 18.6964C56.3641 18.2342 56.565 17.5954 56.565 16.7801V11.8707H58.6288V20.9231H56.6197L56.5833 19.6819C56.2789 20.1444 55.8711 20.5034 55.3597 20.7589C54.8484 21.0143 54.3005 21.1422 53.716 21.1422ZM63.7683 20.9231C62.8431 20.9231 62.137 20.698 61.6499 20.2477C61.1629 19.7976 60.9194 19.0797 60.9194 18.0942V13.6045H59.6229V11.8707H60.9194V9.68058H63.0014V11.8707H65.2112V13.6045H63.0014V18.1125C63.0014 18.5261 63.0987 18.8121 63.2937 18.9702C63.4884 19.1163 63.7807 19.1893 64.1702 19.1893H65.2112V20.9231H63.7683ZM69.9465 21.1422C69.1915 21.1422 68.5402 20.9839 67.9923 20.6676C67.4566 20.3513 67.0426 19.901 66.7504 19.3169C66.4581 18.7209 66.3121 18.0213 66.3121 17.2182V11.8707H68.3759V16.9262C68.3759 17.6805 68.5523 18.2827 68.9054 18.733C69.2707 19.171 69.8064 19.3901 70.5125 19.3901C71.2308 19.3901 71.7908 19.1589 72.1927 18.6964C72.5945 18.2342 72.7955 17.5954 72.7955 16.7801V11.8707H74.8591V20.9231H72.8502L72.8136 19.6819C72.5092 20.1444 72.1014 20.5034 71.5901 20.7589C71.0786 21.0143 70.5308 21.1422 69.9465 21.1422ZM80.0718 21.1422C79.3779 21.1422 78.7326 21.0205 78.1359 20.7771C77.5516 20.5215 77.0706 20.1626 76.6932 19.7002C76.328 19.238 76.1209 18.6964 76.0723 18.076H78.1542C78.2273 18.5018 78.4343 18.8485 78.7751 19.1163C79.1283 19.3718 79.5544 19.4994 80.0535 19.4994C80.5041 19.4994 80.8753 19.4022 81.1676 19.2076C81.4719 19.0127 81.6241 18.7451 81.6241 18.4044C81.6241 18.1125 81.5207 17.8873 81.3138 17.7292C81.1067 17.5588 80.8511 17.4311 80.5467 17.3459C80.2423 17.2486 79.9258 17.1634 79.597 17.0904C79.0248 16.9566 78.4891 16.7923 77.9899 16.5976C77.5029 16.403 77.1072 16.1292 76.8028 15.7764C76.4985 15.4235 76.3463 14.9611 76.3463 14.3893C76.3463 13.8174 76.5045 13.3307 76.821 12.9292C77.1377 12.5155 77.5576 12.1992 78.0812 11.9802C78.617 11.7612 79.2134 11.6517 79.8709 11.6517C80.8694 11.6517 81.6972 11.9011 82.3546 12.3999C83.0243 12.8988 83.3957 13.6288 83.4687 14.59H81.4964C81.4477 14.1764 81.271 13.86 80.9666 13.641C80.6746 13.422 80.291 13.3125 79.8162 13.3125C79.4022 13.3125 79.0552 13.3916 78.7751 13.5497C78.5074 13.7079 78.3735 13.9634 78.3735 14.3163C78.3735 14.5596 78.4708 14.7604 78.6655 14.9186C78.8726 15.0767 79.1283 15.2106 79.4326 15.3201C79.7491 15.4174 80.0597 15.5026 80.364 15.5756C80.9849 15.7216 81.539 15.8919 82.026 16.0866C82.513 16.2813 82.8965 16.555 83.1764 16.9079C83.4687 17.2607 83.6209 17.7414 83.633 18.3497C83.633 18.9338 83.4748 19.4326 83.1583 19.8463C82.8416 20.26 82.4155 20.5823 81.8799 20.8135C81.3442 21.0326 80.7414 21.1422 80.0718 21.1422Z" fill="#0166F4"/>
<path d="M85.1561 20.9231V8.14752H87.2382L93.5024 17.5102V8.14752H95.5843V20.9231H93.5024L87.2382 11.5787V20.9231H85.1561ZM101.47 21.1422C100.557 21.1422 99.76 20.9414 99.0781 20.5398C98.3963 20.1261 97.8606 19.5664 97.471 18.8607C97.0936 18.1429 96.9049 17.3216 96.9049 16.3969C96.9049 15.4357 97.0936 14.6022 97.471 13.8965C97.8606 13.1908 98.3963 12.6433 99.0781 12.2539C99.7721 11.8524 100.576 11.6517 101.489 11.6517C102.378 11.6517 103.151 11.8463 103.808 12.2357C104.466 12.6129 104.983 13.1361 105.361 13.8053C105.738 14.4745 105.927 15.2349 105.927 16.0866C105.927 16.2569 105.921 16.409 105.908 16.5429C105.908 16.6767 105.896 16.8227 105.872 16.9809H98.9868C99.0234 17.4554 99.1451 17.8813 99.3522 18.2585C99.5591 18.6235 99.8392 18.9094 100.192 19.1163C100.557 19.3231 100.971 19.4265 101.434 19.4265C101.933 19.4265 102.353 19.3169 102.694 19.098C103.047 18.8789 103.321 18.5626 103.516 18.1489H105.689C105.519 18.6964 105.245 19.1953 104.868 19.6455C104.502 20.0956 104.033 20.4607 103.461 20.7406C102.901 21.0082 102.238 21.1422 101.47 21.1422ZM99.0051 15.5391H103.808C103.796 14.8699 103.559 14.3406 103.096 13.9513C102.633 13.5619 102.079 13.3672 101.434 13.3672C100.85 13.3672 100.32 13.5437 99.8452 13.8965C99.3826 14.2494 99.1025 14.7969 99.0051 15.5391ZM111.399 21.1422C110.51 21.1422 109.712 20.9473 109.006 20.5581C108.3 20.1688 107.74 19.6211 107.326 18.9155C106.924 18.1976 106.723 17.3581 106.723 16.3969C106.723 15.4113 106.936 14.5657 107.363 13.86C107.789 13.1543 108.361 12.6129 109.079 12.2357C109.798 11.8463 110.595 11.6517 111.472 11.6517C112.36 11.6517 113.158 11.8463 113.864 12.2357C114.582 12.6129 115.149 13.1543 115.562 13.86C115.989 14.5657 116.202 15.4113 116.202 16.3969C116.202 17.3094 115.995 18.1247 115.581 18.8425C115.179 19.5603 114.613 20.1261 113.882 20.5398C113.164 20.9414 112.336 21.1422 111.399 21.1422ZM111.417 19.3535C111.94 19.3535 112.397 19.2257 112.787 18.9702C113.188 18.7026 113.505 18.3436 113.736 17.8934C113.968 17.4433 114.083 16.9322 114.083 16.3604C114.083 15.7642 113.968 15.2471 113.736 14.8091C113.505 14.371 113.188 14.0364 112.787 13.8053C112.397 13.5619 111.946 13.4402 111.435 13.4402C110.899 13.4402 110.431 13.568 110.029 13.8235C109.639 14.079 109.341 14.4319 109.134 14.8821C108.927 15.3201 108.824 15.825 108.824 16.3969C108.824 17.0174 108.939 17.5528 109.171 18.003C109.414 18.441 109.731 18.7756 110.12 19.0068C110.522 19.238 110.954 19.3535 111.417 19.3535Z" fill="#FA5700"/>
<path d="M69.6314 29.0622C69.3133 29.0622 69.0235 28.9997 68.7624 28.8749C68.5068 28.7443 68.3023 28.557 68.1489 28.313L68.1148 28.96H67.2458V23.0003H68.1489V25.3843C68.2965 25.1629 68.4953 24.9841 68.7453 24.8478C68.9952 24.7059 69.2906 24.6349 69.6314 24.6349C70.0459 24.6349 70.4037 24.7314 70.7048 24.9245C71.0114 25.1174 71.2472 25.3813 71.4119 25.7162C71.5766 26.0512 71.6589 26.4257 71.6589 26.8401C71.6589 27.2543 71.5766 27.6318 71.4119 27.9724C71.2472 28.3073 71.0114 28.5741 70.7048 28.7728C70.4037 28.9656 70.0459 29.0622 69.6314 29.0622ZM69.4438 28.2704C69.7051 28.2704 69.9324 28.2108 70.1254 28.0916C70.3186 27.9668 70.469 27.7964 70.577 27.5808C70.6849 27.3595 70.7389 27.1124 70.7389 26.8401C70.7389 26.5563 70.6821 26.3093 70.5684 26.0993C70.4606 25.8836 70.31 25.7162 70.117 25.597C69.9238 25.4778 69.6995 25.4182 69.4438 25.4182C69.194 25.4182 68.9725 25.4806 68.7793 25.6055C68.5863 25.7247 68.4329 25.8922 68.3194 26.1078C68.2114 26.3179 68.1575 26.5648 68.1575 26.8485C68.1575 27.1211 68.2114 27.3651 68.3194 27.5808C68.4329 27.7964 68.5863 27.9668 68.7793 28.0916C68.9725 28.2108 69.194 28.2704 69.4438 28.2704ZM72.8361 30.8331L73.7732 28.7728L72.0097 24.7371H73.0064L74.2503 27.8191L75.5452 24.7371H76.4909L73.7902 30.8331H72.8361ZM79.3876 28.96L81.5772 23.0003H82.5654L84.755 28.96H83.7922L83.2896 27.5126H80.8445L80.3333 28.96H79.3876ZM81.1086 26.7889H83.0255L82.0627 24.073L81.1086 26.7889ZM85.7603 28.96V25.4949H85.198V24.7371H85.7603V24.2943C85.7603 23.8347 85.8768 23.5054 86.1097 23.3067C86.3425 23.1024 86.6662 23.0003 87.0809 23.0003H87.4727V23.7665H87.2257C87.0213 23.7665 86.8765 23.8091 86.7911 23.8943C86.706 23.9738 86.6634 24.1099 86.6634 24.3029V24.7371H87.5665V25.4949H86.6634V28.96H85.7603ZM88.5827 28.96V24.7371H89.4517L89.4772 25.4523C89.6192 25.1968 89.8124 24.9982 90.0566 24.8563C90.3066 24.7087 90.599 24.6349 90.9342 24.6349V25.58H90.687C90.2837 25.58 89.9829 25.6849 89.784 25.895C89.5852 26.0993 89.4858 26.4144 89.4858 26.8401V28.96H88.5827ZM92.3529 23.9965C92.1883 23.9965 92.0463 23.9397 91.927 23.8261C91.8133 23.7069 91.7565 23.5622 91.7565 23.392C91.7565 23.2273 91.8133 23.0884 91.927 22.9748C92.0463 22.8612 92.1883 22.8044 92.3529 22.8044C92.5232 22.8044 92.6652 22.8612 92.7789 22.9748C92.8982 23.0884 92.9578 23.2273 92.9578 23.392C92.9578 23.5622 92.8982 23.7069 92.7789 23.8261C92.6652 23.9397 92.5232 23.9965 92.3529 23.9965ZM91.9015 28.96V24.7371H92.8044V28.96H91.9015ZM94.0858 28.96V24.7371H94.9547L94.9718 25.3586C95.1138 25.126 95.3098 24.9472 95.5596 24.8223C95.8153 24.6973 96.085 24.6349 96.3689 24.6349C96.8632 24.6349 97.2636 24.791 97.5703 25.1033C97.8769 25.4098 98.0303 25.8695 98.0303 26.4825V28.96H97.1272V26.5932C97.1272 26.2129 97.0421 25.9205 96.8716 25.7162C96.7013 25.5063 96.4457 25.4011 96.1049 25.4011C95.7699 25.4011 95.5 25.5175 95.2955 25.7503C95.0911 25.9773 94.9889 26.2924 94.9889 26.6954V28.96H94.0858ZM100.335 28.96L98.7418 24.7371H99.696L100.872 28.1257L102.056 24.7371H102.993L101.4 28.96H100.335ZM105.592 29.0622C105.177 29.0622 104.811 28.9684 104.493 28.7812C104.175 28.5939 103.925 28.3328 103.743 27.9979C103.567 27.6631 103.479 27.28 103.479 26.8485C103.479 26.4002 103.567 26.0114 103.743 25.6821C103.919 25.353 104.166 25.0975 104.484 24.9159C104.808 24.7286 105.18 24.6349 105.6 24.6349C106.009 24.6349 106.367 24.7258 106.674 24.9074C106.98 25.0834 107.219 25.3247 107.389 25.6311C107.565 25.9376 107.653 26.2866 107.653 26.6783C107.653 26.7578 107.651 26.8258 107.645 26.8826C107.645 26.9394 107.639 27.0075 107.628 27.0869H104.382C104.399 27.3254 104.459 27.5381 104.561 27.7255C104.663 27.9072 104.802 28.0519 104.978 28.1597C105.154 28.2618 105.356 28.313 105.583 28.313C105.827 28.313 106.035 28.259 106.205 28.1512C106.381 28.0376 106.512 27.8787 106.597 27.6744H107.534C107.46 27.9298 107.335 28.1625 107.159 28.3726C106.989 28.5825 106.773 28.7501 106.512 28.8749C106.251 28.9997 105.944 29.0622 105.592 29.0622ZM104.39 26.4484H106.733C106.722 26.1192 106.605 25.8609 106.384 25.6737C106.162 25.4806 105.893 25.3843 105.575 25.3843C105.291 25.3843 105.032 25.4722 104.799 25.6482C104.567 25.824 104.43 26.0909 104.39 26.4484ZM110.342 29.0622C110.012 29.0622 109.711 29.0054 109.439 28.892C109.166 28.7727 108.944 28.6052 108.774 28.3896C108.604 28.1739 108.504 27.9212 108.476 27.6318H109.387C109.427 27.8361 109.532 28.0035 109.703 28.1342C109.873 28.2646 110.086 28.33 110.342 28.33C110.569 28.33 110.753 28.2817 110.895 28.1853C111.037 28.083 111.108 27.9497 111.108 27.7851C111.108 27.6433 111.06 27.5325 110.964 27.453C110.873 27.3735 110.753 27.3111 110.606 27.2658C110.464 27.2204 110.308 27.1807 110.137 27.1466C109.876 27.0841 109.629 27.0075 109.396 26.9168C109.169 26.8258 108.984 26.701 108.842 26.5421C108.7 26.3831 108.629 26.1704 108.629 25.9035C108.629 25.6424 108.697 25.4182 108.834 25.2309C108.976 25.0379 109.169 24.8904 109.413 24.7882C109.657 24.6861 109.933 24.6349 110.24 24.6349C110.699 24.6349 111.083 24.7513 111.39 24.9841C111.696 25.2111 111.867 25.546 111.901 25.9888H111.032C111.009 25.7901 110.924 25.6367 110.776 25.529C110.634 25.421 110.45 25.3672 110.222 25.3672C110.012 25.3672 109.842 25.4098 109.711 25.4949C109.581 25.5743 109.515 25.6964 109.515 25.8609C109.515 25.9745 109.561 26.071 109.652 26.1505C109.742 26.2242 109.859 26.2866 110.001 26.3378C110.149 26.3831 110.302 26.4257 110.461 26.4654C110.751 26.5278 111.009 26.6045 111.236 26.6954C111.463 26.7861 111.645 26.9138 111.781 27.0785C111.918 27.2431 111.989 27.4701 111.995 27.7595C111.995 28.0206 111.921 28.2506 111.773 28.4492C111.631 28.6421 111.435 28.7926 111.185 28.9004C110.941 29.0082 110.66 29.0622 110.342 29.0622ZM114.624 28.96C114.204 28.96 113.88 28.8578 113.653 28.6535C113.425 28.4492 113.312 28.1143 113.312 27.6489V25.4949H112.673V24.7371H113.312V23.7155H114.215V24.7371H115.288V25.4949H114.215V27.6489C114.215 27.8646 114.263 28.0093 114.36 28.083C114.456 28.1568 114.607 28.1938 114.811 28.1938H115.288V28.96H114.624Z" fill="#4D4F52"/>
</g>
<defs>
<clipPath id="clip0_508_9330">
<rect width="117" height="32" fill="white"/>
</clipPath>
</defs>
</svg>
